<?xml version="1.0" encoding="UTF-8" standalone="no"?>
<!-- Created with Inkscape (http://www.inkscape.org/) -->

<svg
   xmlns:dc="http://purl.org/dc/elements/1.1/"
   xmlns:cc="http://creativecommons.org/ns#"
   xmlns:rdf="http://www.w3.org/1999/02/22-rdf-syntax-ns#"
   xmlns:svg="http://www.w3.org/2000/svg"
   xmlns="http://www.w3.org/2000/svg"
   xmlns:sodipodi="http://sodipodi.sourceforge.net/DTD/sodipodi-0.dtd"
   xmlns:inkscape="http://www.inkscape.org/namespaces/inkscape"
   width="295.70078"
   height="91.519691"
   viewBox="0 0 78.237985 24.214737"
   version="1.1"
   id="svg8"
   sodipodi:docname="drawing.svg"
   inkscape:version="0.92.4 (f8dce91, 2019-08-02)">
  <defs
     id="defs2" />
  <sodipodi:namedview
     id="base"
     pagecolor="#ffffff"
     bordercolor="#666666"
     borderopacity="1.0"
     inkscape:pageopacity="0.0"
     inkscape:pageshadow="2"
     inkscape:zoom="1.979899"
     inkscape:cx="257.13794"
     inkscape:cy="-32.494376"
     inkscape:document-units="mm"
     inkscape:current-layer="layer1"
     showgrid="false"
     units="px"
     inkscape:window-width="1299"
     inkscape:window-height="713"
     inkscape:window-x="67"
     inkscape:window-y="27"
     inkscape:window-maximized="1" />
  <metadata
     id="metadata5">
    <rdf:RDF>
      <cc:Work
         rdf:about="">
        <dc:format>image/svg+xml</dc:format>
        <dc:type
           rdf:resource="http://purl.org/dc/dcmitype/StillImage" />
        <dc:title></dc:title>
      </cc:Work>
    </rdf:RDF>
  </metadata>
  <g
     inkscape:label="Layer 1"
     inkscape:groupmode="layer"
     id="layer1"
     transform="translate(0,-272.79287)">
    <g
       aria-label="Bioinformatics
Notebook"
       transform="matrix(0.26458333,0,0,0.26458333,-15.874995,260.42731)"
       style="font-style:normal;font-weight:normal;font-size:40px;line-height:1.25;font-family:sans-serif;letter-spacing:0px;word-spacing:0px;fill:#000000;fill-opacity:1;stroke:none"
       id="flowRoot3721">
      <path
         d="m 83.76,74.489802 q 0,2.24 -0.76,3.76 -0.76,1.48 -2.08,2.4 -1.28,0.88 -3.08,1.28 -1.76,0.36 -3.8,0.36 -1.64,0 -3.4,-0.2 -1.76,-0.16 -3.48,-0.52 v -24.04 q 1.4,-0.24 3.08,-0.4 1.68,-0.2 3.32,-0.2 2.8,0 4.56,0.6 1.76,0.56 2.76,1.52 1,0.92 1.36,2.08 0.36,1.16 0.36,2.32 0,1.76 -0.88,3.12 -0.84,1.36 -2.28,2.16 2.52,0.92 3.4,2.48 0.92,1.56 0.92,3.28 z m -11.68,-3.36 v 6.72 q 0.52,0.08 1.12,0.12 0.64,0.04 1.24,0.04 0.84,0 1.64,-0.12 0.8,-0.16 1.4,-0.52 0.64,-0.4 1.04,-1.08 0.4,-0.72 0.4,-1.8 0,-1.8 -1.16,-2.56 -1.12,-0.8 -3.04,-0.8 z m 1.92,-4.08 q 1.88,0 2.84,-0.8 0.96,-0.84 0.96,-2.28 0,-0.88 -0.28,-1.4 -0.28,-0.56 -0.76,-0.84 -0.48,-0.32 -1.12,-0.4 -0.64,-0.12 -1.32,-0.12 -0.56,0 -1.16,0.04 -0.6,0.04 -1.08,0.12 v 5.68 z"
         style="font-style:normal;font-variant:normal;font-weight:bold;font-stretch:normal;font-size:40px;font-family:'Ubuntu Mono';-inkscape-font-specification:'Ubuntu Mono, Bold';font-variant-ligatures:normal;font-variant-caps:normal;font-variant-numeric:normal;font-feature-settings:normal;text-align:start;writing-mode:lr-tb;text-anchor:start"
         id="path3779" />
      <path
         d="m 96.36,57.769802 q 0,1.44 -0.92,2.28 -0.92,0.84 -2.2,0.84 -1.28,0 -2.2,-0.84 -0.88,-0.84 -0.88,-2.28 0,-1.48 0.88,-2.32 0.92,-0.84 2.2,-0.84 1.28,0 2.2,0.84 0.92,0.84 0.92,2.32 z m 7.32,23.4 q -1.52,0.72 -2.88,0.96 -1.32,0.28 -2.44,0.28 -1.92,0 -3.24,-0.56 -1.28,-0.56 -2.08,-1.6 -0.76,-1.08 -1.08,-2.6 -0.32,-1.52 -0.32,-3.48 v -6.92 h -5.2 v -4.08 h 10.12 v 11.64 q 0,1.68 0.6,2.52 0.64,0.8 2.08,0.8 0.68,0 1.64,-0.16 0.96,-0.2 2.16,-0.76 z"
         style="font-style:normal;font-variant:normal;font-weight:bold;font-stretch:normal;font-size:40px;font-family:'Ubuntu Mono';-inkscape-font-specification:'Ubuntu Mono, Bold';font-variant-ligatures:normal;font-variant-caps:normal;font-variant-numeric:normal;font-feature-settings:normal;text-align:start;writing-mode:lr-tb;text-anchor:start"
         id="path3781" />
      <path
         d="m 123.88,72.529802 q 0,2.24 -0.64,4.08 -0.64,1.8 -1.8,3.12 -1.16,1.32 -2.8,2.04 -1.6,0.72 -3.6,0.72 -2,0 -3.64,-0.72 -1.6,-0.72 -2.8,-2.04 -1.16,-1.32 -1.8,-3.12 -0.64,-1.84 -0.64,-4.08 0,-2.2 0.64,-4 0.68,-1.84 1.84,-3.12 1.2,-1.32 2.84,-2 1.64,-0.72 3.56,-0.72 1.96,0 3.56,0.72 1.64,0.68 2.8,2 1.2,1.28 1.84,3.12 0.64,1.8 0.64,4 z m -12.72,0.04 q 0,2.52 0.88,4.08 0.92,1.56 2.92,1.56 1.92,0 2.88,-1.56 1,-1.56 1,-4.08 0,-2.52 -0.92,-4.04 -0.88,-1.56 -2.88,-1.56 -1.92,0 -2.92,1.56 -0.96,1.52 -0.96,4.04 z"
         style="font-style:normal;font-variant:normal;font-weight:bold;font-stretch:normal;font-size:40px;font-family:'Ubuntu Mono';-inkscape-font-specification:'Ubuntu Mono, Bold';font-variant-ligatures:normal;font-variant-caps:normal;font-variant-numeric:normal;font-feature-settings:normal;text-align:start;writing-mode:lr-tb;text-anchor:start"
         id="path3783" />
      <path
         d="m 136.36,57.769802 q 0,1.44 -0.92,2.28 -0.92,0.84 -2.2,0.84 -1.28,0 -2.2,-0.84 -0.88,-0.84 -0.88,-2.28 0,-1.48 0.88,-2.32 0.92,-0.84 2.2,-0.84 1.28,0 2.2,0.84 0.92,0.84 0.92,2.32 z m 7.32,23.4 q -1.52,0.72 -2.88,0.96 -1.32,0.28 -2.44,0.28 -1.92,0 -3.24,-0.56 -1.28,-0.56 -2.08,-1.6 -0.76,-1.08 -1.08,-2.6 -0.32,-1.52 -0.32,-3.48 v -6.92 h -5.2 v -4.08 h 10.12 v 11.64 q 0,1.68 0.6,2.52 0.64,0.8 2.08,0.8 0.68,0 1.64,-0.16 0.96,-0.2 2.16,-0.76 z"
         style="font-style:normal;font-variant:normal;font-weight:bold;font-stretch:normal;font-size:40px;font-family:'Ubuntu Mono';-inkscape-font-specification:'Ubuntu Mono, Bold';font-variant-ligatures:normal;font-variant-caps:normal;font-variant-numeric:normal;font-feature-settings:normal;text-align:start;writing-mode:lr-tb;text-anchor:start"
         id="path3785" />
      <path
         d="m 147.52,63.769802 q 1.32,-0.36 3.24,-0.68 1.96,-0.32 4.24,-0.32 2.24,0 3.72,0.64 1.48,0.6 2.32,1.76 0.88,1.12 1.24,2.72 0.36,1.56 0.36,3.48 v 10.6 h -4.92 v -9.96 q 0,-2.64 -0.6,-3.8 -0.6,-1.16 -2.44,-1.16 -0.56,0 -1.12,0.04 -0.52,0.04 -1.12,0.12 v 14.76 h -4.92 z"
         style="font-style:normal;font-variant:normal;font-weight:bold;font-stretch:normal;font-size:40px;font-family:'Ubuntu Mono';-inkscape-font-specification:'Ubuntu Mono, Bold';font-variant-ligatures:normal;font-variant-caps:normal;font-variant-numeric:normal;font-feature-settings:normal;text-align:start;writing-mode:lr-tb;text-anchor:start"
         id="path3787" />
      <path
         d="m 170.56,81.969802 v -14.72 h -4.12 v -4.08 h 4.12 v -1.08 q 0,-2.28 0.64,-3.76 0.68,-1.52 1.8,-2.4 1.12,-0.92 2.56,-1.28 1.44,-0.4 2.96,-0.4 1.56,0 3.2,0.28 1.64,0.28 2.96,0.92 l -0.84,4 q -0.92,-0.32 -2.32,-0.64 -1.36,-0.36 -2.6,-0.36 -0.68,0 -1.32,0.12 -0.6,0.12 -1.08,0.52 -0.44,0.4 -0.72,1.16 -0.28,0.72 -0.28,1.92 v 1 h 7.72 v 4.08 h -7.72 v 14.72 z"
         style="font-style:normal;font-variant:normal;font-weight:bold;font-stretch:normal;font-size:40px;font-family:'Ubuntu Mono';-inkscape-font-specification:'Ubuntu Mono, Bold';font-variant-ligatures:normal;font-variant-caps:normal;font-variant-numeric:normal;font-feature-settings:normal;text-align:start;writing-mode:lr-tb;text-anchor:start"
         id="path3789" />
      <path
         d="m 203.88,72.529802 q 0,2.24 -0.64,4.08 -0.64,1.8 -1.8,3.12 -1.16,1.32 -2.8,2.04 -1.6,0.72 -3.6,0.72 -2,0 -3.64,-0.72 -1.6,-0.72 -2.8,-2.04 -1.16,-1.32 -1.8,-3.12 -0.64,-1.84 -0.64,-4.08 0,-2.2 0.64,-4 0.68,-1.84 1.84,-3.12 1.2,-1.32 2.84,-2 1.64,-0.72 3.56,-0.72 1.96,0 3.56,0.72 1.64,0.68 2.8,2 1.2,1.28 1.84,3.12 0.64,1.8 0.64,4 z m -12.72,0.04 q 0,2.52 0.88,4.08 0.92,1.56 2.92,1.56 1.92,0 2.88,-1.56 1,-1.56 1,-4.08 0,-2.52 -0.92,-4.04 -0.88,-1.56 -2.88,-1.56 -1.92,0 -2.92,1.56 -0.96,1.52 -0.96,4.04 z"
         style="font-style:normal;font-variant:normal;font-weight:bold;font-stretch:normal;font-size:40px;font-family:'Ubuntu Mono';-inkscape-font-specification:'Ubuntu Mono, Bold';font-variant-ligatures:normal;font-variant-caps:normal;font-variant-numeric:normal;font-feature-settings:normal;text-align:start;writing-mode:lr-tb;text-anchor:start"
         id="path3791" />
      <path
         d="m 222.48,68.169802 q -0.48,-0.12 -1.16,-0.24 -0.64,-0.12 -1.32,-0.2 -0.68,-0.12 -1.32,-0.16 -0.64,-0.04 -1.08,-0.04 -1.04,0 -2.04,0.12 -1,0.08 -2.04,0.36 v 13.96 h -4.96 v -17.56 q 1.96,-0.72 4,-1.16 2.08,-0.44 4.84,-0.44 0.4,0 1.12,0.04 0.76,0.04 1.6,0.16 0.84,0.08 1.68,0.24 0.88,0.12 1.56,0.36 z"
         style="font-style:normal;font-variant:normal;font-weight:bold;font-stretch:normal;font-size:40px;font-family:'Ubuntu Mono';-inkscape-font-specification:'Ubuntu Mono, Bold';font-variant-ligatures:normal;font-variant-caps:normal;font-variant-numeric:normal;font-feature-settings:normal;text-align:start;writing-mode:lr-tb;text-anchor:start"
         id="path3793" />
      <path
         d="m 238.72,62.969802 q 1.56,0 2.56,0.48 1,0.48 1.56,1.44 0.6,0.96 0.8,2.44 0.2,1.44 0.2,3.4 v 11.24 h -4 v -11.48 q 0,-1.12 -0.16,-1.8 -0.12,-0.68 -0.36,-1.04 -0.2,-0.36 -0.52,-0.48 -0.28,-0.12 -0.6,-0.12 -0.36,0 -0.76,0.08 -0.4,0.04 -0.72,0.2 0.12,0.76 0.2,1.68 0.08,0.92 0.08,2.04 v 3.76 h -4 v -4.32 q 0,-1.92 -0.4,-2.68 -0.36,-0.76 -1.2,-0.76 -0.24,0 -0.6,0.04 -0.32,0.04 -0.64,0.12 v 14.76 h -4 v -18.08 q 1.56,-0.44 3.08,-0.68 1.52,-0.24 2.68,-0.24 1.04,0 1.84,0.28 0.84,0.24 1.44,0.84 0.68,-0.44 1.6,-0.76 0.92,-0.36 1.92,-0.36 z"
         style="font-style:normal;font-variant:normal;font-weight:bold;font-stretch:normal;font-size:40px;font-family:'Ubuntu Mono';-inkscape-font-specification:'Ubuntu Mono, Bold';font-variant-ligatures:normal;font-variant-caps:normal;font-variant-numeric:normal;font-feature-settings:normal;text-align:start;writing-mode:lr-tb;text-anchor:start"
         id="path3795" />
      <path
         d="m 255.04,78.449802 q 0.8,0 1.56,0 0.76,-0.04 1.32,-0.12 v -4.32 q -0.48,-0.08 -1.16,-0.12 -0.68,-0.08 -1.24,-0.08 -0.76,0 -1.48,0.12 -0.72,0.08 -1.28,0.32 -0.52,0.24 -0.84,0.68 -0.32,0.44 -0.32,1.16 0,1.28 0.96,1.84 0.96,0.52 2.48,0.52 z m -0.44,-15.76 q 2.32,0 3.84,0.56 1.56,0.52 2.48,1.52 0.92,0.96 1.32,2.4 0.4,1.4 0.4,3.16 v 11.2 q -1.08,0.24 -3.2,0.56 -2.12,0.32 -4.76,0.32 -1.8,0 -3.28,-0.32 -1.44,-0.32 -2.48,-1.04 -1.04,-0.76 -1.6,-1.92 -0.56,-1.2 -0.56,-2.92 0,-1.64 0.64,-2.76 0.64,-1.12 1.72,-1.8 1.08,-0.68 2.48,-0.96 1.4,-0.32 2.92,-0.32 1.92,0 3.4,0.32 v -0.6 q 0,-1.4 -0.88,-2.32 -0.88,-0.96 -3.04,-0.96 -1.4,0 -2.72,0.2 -1.28,0.2 -2.08,0.48 l -0.68,-3.96 q 0.92,-0.32 2.6,-0.56 1.68,-0.28 3.48,-0.28 z"
         style="font-style:normal;font-variant:normal;font-weight:bold;font-stretch:normal;font-size:40px;font-family:'Ubuntu Mono';-inkscape-font-specification:'Ubuntu Mono, Bold';font-variant-ligatures:normal;font-variant-caps:normal;font-variant-numeric:normal;font-feature-settings:normal;text-align:start;writing-mode:lr-tb;text-anchor:start"
         id="path3797" />
      <path
         d="m 270.72,67.249802 h -4.28 v -4.08 h 4.28 v -4.72 l 4.92,-0.8 v 5.52 h 7.88 v 4.08 h -7.88 v 7.6 q 0,1.04 0.2,1.68 0.2,0.64 0.56,1 0.36,0.36 0.88,0.48 0.52,0.12 1.16,0.12 0.68,0 1.24,-0.04 0.6,-0.04 1.12,-0.12 0.56,-0.12 1.12,-0.32 0.6,-0.2 1.28,-0.52 l 0.68,4.24 q -1.36,0.56 -2.96,0.8 -1.56,0.24 -3.04,0.24 -1.72,0 -3.04,-0.28 -1.32,-0.28 -2.24,-1.08 -0.92,-0.8 -1.4,-2.24 -0.48,-1.48 -0.48,-3.84 z"
         style="font-style:normal;font-variant:normal;font-weight:bold;font-stretch:normal;font-size:40px;font-family:'Ubuntu Mono';-inkscape-font-specification:'Ubuntu Mono, Bold';font-variant-ligatures:normal;font-variant-caps:normal;font-variant-numeric:normal;font-feature-settings:normal;text-align:start;writing-mode:lr-tb;text-anchor:start"
         id="path3799" />
      <path
         d="m 296.36,57.769802 q 0,1.44 -0.92,2.28 -0.92,0.84 -2.2,0.84 -1.28,0 -2.2,-0.84 -0.88,-0.84 -0.88,-2.28 0,-1.48 0.88,-2.32 0.92,-0.84 2.2,-0.84 1.28,0 2.2,0.84 0.92,0.84 0.92,2.32 z m 7.32,23.4 q -1.52,0.72 -2.88,0.96 -1.32,0.28 -2.44,0.28 -1.92,0 -3.24,-0.56 -1.28,-0.56 -2.08,-1.6 -0.76,-1.08 -1.08,-2.6 -0.32,-1.52 -0.32,-3.48 v -6.92 h -5.2 v -4.08 h 10.12 v 11.64 q 0,1.68 0.6,2.52 0.64,0.8 2.08,0.8 0.68,0 1.64,-0.16 0.96,-0.2 2.16,-0.76 z"
         style="font-style:normal;font-variant:normal;font-weight:bold;font-stretch:normal;font-size:40px;font-family:'Ubuntu Mono';-inkscape-font-specification:'Ubuntu Mono, Bold';font-variant-ligatures:normal;font-variant-caps:normal;font-variant-numeric:normal;font-feature-settings:normal;text-align:start;writing-mode:lr-tb;text-anchor:start"
         id="path3801" />
      <path
         d="m 306.76,72.569802 q 0,-2.04 0.64,-3.84 0.64,-1.8 1.96,-3.12 1.32,-1.36 3.32,-2.12 2.04,-0.8 4.84,-0.8 1.68,0 3.04,0.24 1.36,0.24 2.76,0.8 l -1.08,3.96 q -0.8,-0.28 -1.8,-0.48 -0.96,-0.24 -2.48,-0.24 -1.76,0 -2.96,0.44 -1.16,0.4 -1.88,1.16 -0.72,0.72 -1.04,1.76 -0.32,1.04 -0.32,2.24 0,2.6 1.44,4.08 1.48,1.48 5,1.48 1.16,0 2.4,-0.16 1.28,-0.16 2.32,-0.52 l 0.72,4.04 q -1.04,0.4 -2.52,0.64 -1.48,0.28 -3.48,0.28 -2.88,0 -4.96,-0.76 -2.04,-0.76 -3.36,-2.08 -1.32,-1.32 -1.96,-3.12 -0.6,-1.8 -0.6,-3.88 z"
         style="font-style:normal;font-variant:normal;font-weight:bold;font-stretch:normal;font-size:40px;font-family:'Ubuntu Mono';-inkscape-font-specification:'Ubuntu Mono, Bold';font-variant-ligatures:normal;font-variant-caps:normal;font-variant-numeric:normal;font-feature-settings:normal;text-align:start;writing-mode:lr-tb;text-anchor:start"
         id="path3803" />
      <path
         d="m 334.12,78.249802 q 1.8,0 2.76,-0.24 0.96,-0.28 0.96,-1.08 0,-0.52 -0.32,-0.88 -0.28,-0.36 -0.84,-0.6 -0.52,-0.28 -1.24,-0.52 -0.68,-0.24 -1.44,-0.48 -1.08,-0.32 -2.2,-0.72 -1.12,-0.44 -2.04,-1.08 -0.92,-0.64 -1.52,-1.6 -0.6,-1 -0.6,-2.48 0,-1.2 0.44,-2.24 0.48,-1.08 1.44,-1.88 1,-0.84 2.52,-1.28 1.52,-0.48 3.64,-0.48 1.84,0 3.4,0.28 1.6,0.28 2.76,0.8 l -0.76,4.16 q -0.68,-0.2 -2.12,-0.64 -1.44,-0.48 -3.24,-0.48 -1.88,0 -2.56,0.48 -0.64,0.44 -0.64,0.96 0,0.44 0.28,0.8 0.32,0.32 0.8,0.6 0.52,0.28 1.16,0.56 0.68,0.24 1.44,0.48 1.08,0.36 2.24,0.8 1.16,0.44 2.08,1.12 0.96,0.64 1.56,1.68 0.6,1 0.6,2.48 0,1.16 -0.44,2.2 -0.44,1.04 -1.48,1.8 -1,0.76 -2.64,1.2 -1.64,0.44 -4.04,0.44 -2.44,0 -4.16,-0.56 -1.72,-0.56 -2.76,-1 l 0.76,-4.12 q 1.4,0.56 2.96,1.04 1.6,0.48 3.24,0.48 z"
         style="font-style:normal;font-variant:normal;font-weight:bold;font-stretch:normal;font-size:40px;font-family:'Ubuntu Mono';-inkscape-font-specification:'Ubuntu Mono, Bold';font-variant-ligatures:normal;font-variant-caps:normal;font-variant-numeric:normal;font-feature-settings:normal;text-align:start;writing-mode:lr-tb;text-anchor:start"
         id="path3805" />
      <path
         d="m 79.2,133.88687 q -1.68,-4.12 -3.68,-8.2 -1.96,-4.12 -4.24,-8.24 v 16.44 h -4.44 v -24.76 h 3.96 q 1.12,1.76 2.24,3.84 1.12,2.04 2.16,4.08 1.08,2.04 1.96,3.96 0.92,1.92 1.56,3.36 v -15.24 h 4.44 v 24.76 z"
         style="font-style:normal;font-variant:normal;font-weight:bold;font-stretch:normal;font-size:40px;font-family:'Ubuntu Mono';-inkscape-font-specification:'Ubuntu Mono, Bold';font-variant-ligatures:normal;font-variant-caps:normal;font-variant-numeric:normal;font-feature-settings:normal;text-align:start;writing-mode:lr-tb;text-anchor:start"
         id="path3807" />
      <path
         d="m 103.88,124.44687 q 0,2.24 -0.64,4.08 -0.64,1.8 -1.8,3.12 -1.16,1.32 -2.8,2.04 -1.6,0.72 -3.6,0.72 -2,0 -3.64,-0.72 -1.6,-0.72 -2.8,-2.04 -1.16,-1.32 -1.8,-3.12 -0.64,-1.84 -0.64,-4.08 0,-2.2 0.64,-4 0.68,-1.84 1.84,-3.12 1.2,-1.32 2.84,-2 1.64,-0.72 3.56,-0.72 1.96,0 3.56,0.72 1.64,0.68 2.8,2 1.2,1.28 1.84,3.12 0.64,1.8 0.64,4 z m -12.72,0.04 q 0,2.52 0.88,4.08 0.92,1.56 2.92,1.56 1.92,0 2.88,-1.56 1,-1.56 1,-4.08 0,-2.52 -0.92,-4.04 -0.88,-1.56 -2.88,-1.56 -1.92,0 -2.92,1.56 -0.96,1.52 -0.96,4.04 z"
         style="font-style:normal;font-variant:normal;font-weight:bold;font-stretch:normal;font-size:40px;font-family:'Ubuntu Mono';-inkscape-font-specification:'Ubuntu Mono, Bold';font-variant-ligatures:normal;font-variant-caps:normal;font-variant-numeric:normal;font-feature-settings:normal;text-align:start;writing-mode:lr-tb;text-anchor:start"
         id="path3809" />
      <path
         d="m 110.72,119.16687 h -4.28 v -4.08 h 4.28 v -4.72 l 4.92,-0.8 v 5.52 h 7.88 v 4.08 h -7.88 v 7.6 q 0,1.04 0.2,1.68 0.2,0.64 0.56,1 0.36,0.36 0.88,0.48 0.52,0.12 1.16,0.12 0.68,0 1.24,-0.04 0.6,-0.04 1.12,-0.12 0.56,-0.12 1.12,-0.32 0.6,-0.2 1.28,-0.52 l 0.68,4.24 q -1.36,0.56 -2.96,0.8 -1.56,0.24 -3.04,0.24 -1.72,0 -3.04,-0.28 -1.32,-0.28 -2.24,-1.08 -0.92,-0.8 -1.4,-2.24 -0.48,-1.48 -0.48,-3.84 z"
         style="font-style:normal;font-variant:normal;font-weight:bold;font-stretch:normal;font-size:40px;font-family:'Ubuntu Mono';-inkscape-font-specification:'Ubuntu Mono, Bold';font-variant-ligatures:normal;font-variant-caps:normal;font-variant-numeric:normal;font-feature-settings:normal;text-align:start;writing-mode:lr-tb;text-anchor:start"
         id="path3811" />
      <path
         d="m 126.24,124.64687 q 0,-2.48 0.76,-4.36 0.76,-1.88 2,-3.12 1.24,-1.28 2.84,-1.92 1.6,-0.64 3.28,-0.64 4.16,0 6.32,2.48 2.16,2.44 2.16,7.16 0,0.48 -0.04,1 0,0.52 -0.04,0.84 h -12.2 q 0,1.84 1.52,2.92 1.52,1.04 3.92,1.04 1.48,0 2.8,-0.32 1.36,-0.32 2.28,-0.64 l 0.68,4.2 q -1.28,0.44 -2.72,0.72 -1.44,0.32 -3.24,0.32 -2.4,0 -4.32,-0.6 -1.88,-0.64 -3.24,-1.84 -1.32,-1.24 -2.04,-3.04 -0.72,-1.8 -0.72,-4.2 z m 12.6,-1.96 q 0,-0.76 -0.2,-1.44 -0.2,-0.72 -0.64,-1.28 -0.44,-0.56 -1.12,-0.88 -0.68,-0.36 -1.68,-0.36 -0.96,0 -1.68,0.32 -0.68,0.32 -1.16,0.88 -0.44,0.56 -0.72,1.28 -0.24,0.72 -0.32,1.48 z"
         style="font-style:normal;font-variant:normal;font-weight:bold;font-stretch:normal;font-size:40px;font-family:'Ubuntu Mono';-inkscape-font-specification:'Ubuntu Mono, Bold';font-variant-ligatures:normal;font-variant-caps:normal;font-variant-numeric:normal;font-feature-settings:normal;text-align:start;writing-mode:lr-tb;text-anchor:start"
         id="path3813" />
      <path
         d="m 158.8,124.36687 q 0,-2.64 -0.88,-4.04 -0.84,-1.4 -2.6,-1.4 -0.8,0 -1.6,0.24 -0.76,0.2 -1.32,0.52 v 10.2 q 0.56,0.12 1.16,0.16 0.64,0.04 1.08,0.04 1.92,0 3.04,-1.28 1.12,-1.32 1.12,-4.44 z m 5,0.12 q 0,2.24 -0.6,4.08 -0.6,1.8 -1.76,3.08 -1.16,1.28 -2.84,2 -1.68,0.68 -3.84,0.68 -1.92,0 -3.92,-0.28 -2,-0.28 -3.36,-0.72 v -26.36 l 4.92,-0.84 v 9.4 q 1.04,-0.48 2,-0.64 0.96,-0.2 1.92,-0.2 1.84,0 3.24,0.72 1.4,0.68 2.32,2 0.96,1.28 1.44,3.08 0.48,1.8 0.48,4 z"
         style="font-style:normal;font-variant:normal;font-weight:bold;font-stretch:normal;font-size:40px;font-family:'Ubuntu Mono';-inkscape-font-specification:'Ubuntu Mono, Bold';font-variant-ligatures:normal;font-variant-caps:normal;font-variant-numeric:normal;font-feature-settings:normal;text-align:start;writing-mode:lr-tb;text-anchor:start"
         id="path3815" />
      <path
         d="m 183.88,124.44687 q 0,2.24 -0.64,4.08 -0.64,1.8 -1.8,3.12 -1.16,1.32 -2.8,2.04 -1.6,0.72 -3.6,0.72 -2,0 -3.64,-0.72 -1.6,-0.72 -2.8,-2.04 -1.16,-1.32 -1.8,-3.12 -0.64,-1.84 -0.64,-4.08 0,-2.2 0.64,-4 0.68,-1.84 1.84,-3.12 1.2,-1.32 2.84,-2 1.64,-0.72 3.56,-0.72 1.96,0 3.56,0.72 1.64,0.68 2.8,2 1.2,1.28 1.84,3.12 0.64,1.8 0.64,4 z m -12.72,0.04 q 0,2.52 0.88,4.08 0.92,1.56 2.92,1.56 1.92,0 2.88,-1.56 1,-1.56 1,-4.08 0,-2.52 -0.92,-4.04 -0.88,-1.56 -2.88,-1.56 -1.92,0 -2.92,1.56 -0.96,1.52 -0.96,4.04 z"
         style="font-style:normal;font-variant:normal;font-weight:bold;font-stretch:normal;font-size:40px;font-family:'Ubuntu Mono';-inkscape-font-specification:'Ubuntu Mono, Bold';font-variant-ligatures:normal;font-variant-caps:normal;font-variant-numeric:normal;font-feature-settings:normal;text-align:start;writing-mode:lr-tb;text-anchor:start"
         id="path3817" />
      <path
         d="m 203.88,124.44687 q 0,2.24 -0.64,4.08 -0.64,1.8 -1.8,3.12 -1.16,1.32 -2.8,2.04 -1.6,0.72 -3.6,0.72 -2,0 -3.64,-0.72 -1.6,-0.72 -2.8,-2.04 -1.16,-1.32 -1.8,-3.12 -0.64,-1.84 -0.64,-4.08 0,-2.2 0.64,-4 0.68,-1.84 1.84,-3.12 1.2,-1.32 2.84,-2 1.64,-0.72 3.56,-0.72 1.96,0 3.56,0.72 1.64,0.68 2.8,2 1.2,1.28 1.84,3.12 0.64,1.8 0.64,4 z m -12.72,0.04 q 0,2.52 0.88,4.08 0.92,1.56 2.92,1.56 1.92,0 2.88,-1.56 1,-1.56 1,-4.08 0,-2.52 -0.92,-4.04 -0.88,-1.56 -2.88,-1.56 -1.92,0 -2.92,1.56 -0.96,1.52 -0.96,4.04 z"
         style="font-style:normal;font-variant:normal;font-weight:bold;font-stretch:normal;font-size:40px;font-family:'Ubuntu Mono';-inkscape-font-specification:'Ubuntu Mono, Bold';font-variant-ligatures:normal;font-variant-caps:normal;font-variant-numeric:normal;font-feature-settings:normal;text-align:start;writing-mode:lr-tb;text-anchor:start"
         id="path3819" />
      <path
         d="m 212.48,122.52687 q 0.72,-0.84 1.44,-1.76 0.76,-0.96 1.44,-1.96 0.72,-1 1.36,-1.92 0.64,-0.96 1.12,-1.8 h 5.92 q -0.72,0.92 -1.64,2 -0.92,1.08 -1.92,2.2 -0.96,1.12 -1.96,2.16 -0.96,1.04 -1.76,1.92 1,0.96 2.16,2.32 1.16,1.32 2.28,2.76 1.12,1.44 2.04,2.88 0.96,1.44 1.52,2.56 h -5.64 q -0.48,-1 -1.28,-2.24 -0.76,-1.28 -1.64,-2.48 -0.88,-1.24 -1.8,-2.32 -0.88,-1.12 -1.64,-1.84 v 8.88 h -4.96 v -26.92 l 4.96,-0.84 z"
         style="font-style:normal;font-variant:normal;font-weight:bold;font-stretch:normal;font-size:40px;font-family:'Ubuntu Mono';-inkscape-font-specification:'Ubuntu Mono, Bold';font-variant-ligatures:normal;font-variant-caps:normal;font-variant-numeric:normal;font-feature-settings:normal;text-align:start;writing-mode:lr-tb;text-anchor:start"
         id="path3821" />
    </g>
  </g>
</svg>
